<svg width="325" height="100" viewBox="0 0 325 100" fill="none" xmlns="http://www.w3.org/2000/svg">
<rect x="1.29578" y="1" width="322" height="98" rx="12" fill="black"/>
<rect x="1.29578" y="1" width="322" height="98" rx="12" stroke="#7B7B7B" stroke-width="2"/>
<path d="M48.2958 30.8333L48.2958 46.1666M48.2958 46.1666L54.0458 40.4166M48.2958 46.1666L42.5458 40.4166" stroke="white" stroke-width="3" stroke-linecap="round" stroke-linejoin="round"/>
<path d="M29.1291 51.9166H35.1863C36.9212 51.9166 37.7886 51.9166 38.5511 52.2673C39.3136 52.618 39.8782 53.2766 41.0072 54.5939L42.1676 55.9477C43.2967 57.2649 43.8612 57.9236 44.6237 58.2743C45.3862 58.625 46.2537 58.625 47.9886 58.625H48.6029C50.3378 58.625 51.2053 58.625 51.9678 58.2743C52.7303 57.9236 53.2948 57.2649 54.4239 55.9477L55.5843 54.5939C56.7134 53.2766 57.2779 52.618 58.0404 52.2673C58.8029 51.9166 59.6703 51.9166 61.4053 51.9166H67.4624" stroke="white" stroke-width="3" stroke-linecap="round"/>
<path d="M57.8791 31.0767C60.9939 31.383 63.0906 32.0755 64.6555 33.6404C67.4624 36.4473 67.4624 40.9649 67.4624 50.0002C67.4624 59.0354 67.4624 63.553 64.6555 66.3599C61.8486 69.1668 57.331 69.1668 48.2958 69.1668C39.2605 69.1668 34.7429 69.1668 31.936 66.3599C29.1291 63.553 29.1291 59.0354 29.1291 50.0002C29.1291 40.9649 29.1291 36.4473 31.936 33.6404C33.5009 32.0755 35.5976 31.383 38.7124 31.0767" stroke="white" stroke-width="3" stroke-linecap="round"/>
<path d="M111.322 62.815C109.339 62.815 107.531 62.5117 105.897 61.905C104.287 61.275 102.899 60.4117 101.732 59.315C100.589 58.195 99.7023 56.865 99.0723 55.325C98.4656 53.785 98.1623 52.105 98.1623 50.285C98.1623 48.465 98.4773 46.785 99.1073 45.245C99.7373 43.705 100.624 42.375 101.767 41.255C102.911 40.1117 104.287 39.225 105.897 38.595C107.507 37.965 109.292 37.65 111.252 37.65C112.886 37.65 114.356 37.86 115.662 38.28C116.969 38.7 118.136 39.2833 119.162 40.03L117.482 43.04C116.619 42.4567 115.674 42.0133 114.647 41.71C113.644 41.4067 112.606 41.255 111.532 41.255C110.202 41.255 108.977 41.4767 107.857 41.92C106.737 42.3633 105.757 42.9817 104.917 43.775C104.101 44.545 103.459 45.49 102.992 46.61C102.549 47.7067 102.327 48.9083 102.327 50.215C102.327 51.5217 102.549 52.735 102.992 53.855C103.459 54.9517 104.112 55.8967 104.952 56.69C105.792 57.4833 106.784 58.1017 107.927 58.545C109.094 58.965 110.377 59.175 111.777 59.175C112.291 59.175 112.816 59.14 113.352 59.07C113.889 59 114.414 58.8833 114.927 58.72C115.464 58.5567 115.977 58.3467 116.467 58.09C116.981 57.8333 117.459 57.5067 117.902 57.11L119.687 60.085C119.244 60.4583 118.742 60.8083 118.182 61.135C117.622 61.4617 116.992 61.7533 116.292 62.01C115.592 62.2433 114.822 62.43 113.982 62.57C113.166 62.7333 112.279 62.815 111.322 62.815ZM133.397 62.5L126.992 54.275L132.417 46.715H136.337V47.205L131.192 53.925L137.562 61.975V62.5H133.397ZM123.912 55.57V52.665H128.742V55.57H123.912ZM122.722 62.5V58.615V58.09V51.3V51.055V46.715H126.432V51.055V51.3V62.5H122.722ZM151.13 62.5V58.615L150.92 58.09V51.3L151.13 51.055V46.715H154.63V51.055V51.3V62.5H151.13ZM145.705 62.745C144.725 62.745 143.78 62.5583 142.87 62.185C141.983 61.7883 141.19 61.24 140.49 60.54C139.813 59.8167 139.265 58.9533 138.845 57.95C138.425 56.9467 138.215 55.8267 138.215 54.59C138.215 53.3533 138.413 52.2333 138.81 51.23C139.23 50.2267 139.778 49.375 140.455 48.675C141.132 47.9517 141.925 47.4033 142.835 47.03C143.745 46.6333 144.702 46.435 145.705 46.435C146.545 46.435 147.315 46.5517 148.015 46.785C148.715 46.995 149.322 47.2983 149.835 47.695C150.372 48.0683 150.803 48.5 151.13 48.99C151.457 49.48 151.655 49.9817 151.725 50.495V54.38H150.92C150.92 53.7267 150.815 53.12 150.605 52.56C150.418 52 150.138 51.51 149.765 51.09C149.392 50.67 148.925 50.3433 148.365 50.11C147.828 49.8533 147.222 49.725 146.545 49.725C145.962 49.725 145.402 49.83 144.865 50.04C144.328 50.25 143.85 50.565 143.43 50.985C143.033 51.3817 142.718 51.8833 142.485 52.49C142.275 53.0967 142.17 53.7967 142.17 54.59C142.17 55.3367 142.275 56.0133 142.485 56.62C142.695 57.2267 142.998 57.7517 143.395 58.195C143.792 58.615 144.258 58.9417 144.795 59.175C145.332 59.385 145.915 59.49 146.545 59.49C147.198 59.49 147.793 59.3733 148.33 59.14C148.89 58.8833 149.357 58.5333 149.73 58.09C150.103 57.6467 150.395 57.1333 150.605 56.55C150.815 55.9667 150.92 55.3367 150.92 54.66H151.9V58.37C151.76 58.9767 151.503 59.5483 151.13 60.085C150.78 60.6217 150.325 61.0883 149.765 61.485C149.228 61.8583 148.61 62.1617 147.91 62.395C147.233 62.6283 146.498 62.745 145.705 62.745ZM164.442 57.25C163.485 57.25 162.61 57.145 161.817 56.935C161.047 56.7017 160.394 56.34 159.857 55.85C159.32 55.36 158.9 54.73 158.597 53.96C158.317 53.19 158.177 52.245 158.177 51.125V46.715H161.922V50.985C161.922 51.475 161.969 51.9067 162.062 52.28C162.155 52.6533 162.33 52.9683 162.587 53.225C162.844 53.4583 163.194 53.645 163.637 53.785C164.08 53.9017 164.64 53.96 165.317 53.96C165.97 53.96 166.589 53.9017 167.172 53.785C167.755 53.6683 168.327 53.4933 168.887 53.26V56.2C168.42 56.48 167.814 56.725 167.067 56.935C166.344 57.145 165.469 57.25 164.442 57.25ZM168.222 62.5V46.715H171.932V62.5H168.222ZM188.078 62.5V58.615L187.868 58.09V51.3L188.078 51.055V46.715H191.578V51.055V51.3V62.5H188.078ZM182.653 62.745C181.673 62.745 180.728 62.5583 179.818 62.185C178.932 61.7883 178.138 61.24 177.438 60.54C176.762 59.8167 176.213 58.9533 175.793 57.95C175.373 56.9467 175.163 55.8267 175.163 54.59C175.163 53.3533 175.362 52.2333 175.758 51.23C176.178 50.2267 176.727 49.375 177.403 48.675C178.08 47.9517 178.873 47.4033 179.783 47.03C180.693 46.6333 181.65 46.435 182.653 46.435C183.493 46.435 184.263 46.5517 184.963 46.785C185.663 46.995 186.27 47.2983 186.783 47.695C187.32 48.0683 187.752 48.5 188.078 48.99C188.405 49.48 188.603 49.9817 188.673 50.495V54.38H187.868C187.868 53.7267 187.763 53.12 187.553 52.56C187.367 52 187.087 51.51 186.713 51.09C186.34 50.67 185.873 50.3433 185.313 50.11C184.777 49.8533 184.17 49.725 183.493 49.725C182.91 49.725 182.35 49.83 181.813 50.04C181.277 50.25 180.798 50.565 180.378 50.985C179.982 51.3817 179.667 51.8833 179.433 52.49C179.223 53.0967 179.118 53.7967 179.118 54.59C179.118 55.3367 179.223 56.0133 179.433 56.62C179.643 57.2267 179.947 57.7517 180.343 58.195C180.74 58.615 181.207 58.9417 181.743 59.175C182.28 59.385 182.863 59.49 183.493 59.49C184.147 59.49 184.742 59.3733 185.278 59.14C185.838 58.8833 186.305 58.5333 186.678 58.09C187.052 57.6467 187.343 57.1333 187.553 56.55C187.763 55.9667 187.868 55.3367 187.868 54.66H188.848V58.37C188.708 58.9767 188.452 59.5483 188.078 60.085C187.728 60.6217 187.273 61.0883 186.713 61.485C186.177 61.8583 185.558 62.1617 184.858 62.395C184.182 62.6283 183.447 62.745 182.653 62.745ZM199.675 62.5V50.005H194.565V46.715H208.495V50.005H203.385V62.5H199.675ZM211.487 62.5V46.715H215.197V51.51H218.242C220.435 51.51 222.092 51.9533 223.212 52.84C224.355 53.7267 224.927 55.0917 224.927 56.935C224.927 58.7783 224.343 60.1667 223.177 61.1C222.033 62.0333 220.272 62.5 217.892 62.5H211.487ZM217.472 59.49C218.008 59.49 218.498 59.455 218.942 59.385C219.408 59.315 219.805 59.1867 220.132 59C220.458 58.79 220.703 58.5217 220.867 58.195C221.053 57.8683 221.147 57.4483 221.147 56.935C221.147 56.4683 221.065 56.0833 220.902 55.78C220.762 55.4767 220.54 55.2317 220.237 55.045C219.933 54.835 219.56 54.695 219.117 54.625C218.697 54.555 218.207 54.52 217.647 54.52H215.197V59.49H217.472ZM239.084 62.85C238.337 62.85 237.754 62.6283 237.334 62.185C236.937 61.7417 236.739 61.205 236.739 60.575C236.739 59.945 236.937 59.4083 237.334 58.965C237.731 58.4983 238.302 58.265 239.049 58.265C239.819 58.265 240.414 58.4867 240.834 58.93C241.254 59.3733 241.464 59.9217 241.464 60.575C241.464 60.9017 241.406 61.205 241.289 61.485C241.172 61.7417 241.009 61.975 240.799 62.185C240.612 62.395 240.367 62.5583 240.064 62.675C239.784 62.7917 239.457 62.85 239.084 62.85ZM256.916 62.5V58.615L256.706 58.09V51.3L256.916 51.055V46.715H260.416V51.055V51.3V62.5H256.916ZM251.491 62.745C250.511 62.745 249.566 62.5583 248.656 62.185C247.77 61.7883 246.976 61.24 246.276 60.54C245.6 59.8167 245.051 58.9533 244.631 57.95C244.211 56.9467 244.001 55.8267 244.001 54.59C244.001 53.3533 244.2 52.2333 244.596 51.23C245.016 50.2267 245.565 49.375 246.241 48.675C246.918 47.9517 247.711 47.4033 248.621 47.03C249.531 46.6333 250.488 46.435 251.491 46.435C252.331 46.435 253.101 46.5517 253.801 46.785C254.501 46.995 255.108 47.2983 255.621 47.695C256.158 48.0683 256.59 48.5 256.916 48.99C257.243 49.48 257.441 49.9817 257.511 50.495V54.38H256.706C256.706 53.7267 256.601 53.12 256.391 52.56C256.205 52 255.925 51.51 255.551 51.09C255.178 50.67 254.711 50.3433 254.151 50.11C253.615 49.8533 253.008 49.725 252.331 49.725C251.748 49.725 251.188 49.83 250.651 50.04C250.115 50.25 249.636 50.565 249.216 50.985C248.82 51.3817 248.505 51.8833 248.271 52.49C248.061 53.0967 247.956 53.7967 247.956 54.59C247.956 55.3367 248.061 56.0133 248.271 56.62C248.481 57.2267 248.785 57.7517 249.181 58.195C249.578 58.615 250.045 58.9417 250.581 59.175C251.118 59.385 251.701 59.49 252.331 59.49C252.985 59.49 253.58 59.3733 254.116 59.14C254.676 58.8833 255.143 58.5333 255.516 58.09C255.89 57.6467 256.181 57.1333 256.391 56.55C256.601 55.9667 256.706 55.3367 256.706 54.66H257.686V58.37C257.546 58.9767 257.29 59.5483 256.916 60.085C256.566 60.6217 256.111 61.0883 255.551 61.485C255.015 61.8583 254.396 62.1617 253.696 62.395C253.02 62.6283 252.285 62.745 251.491 62.745ZM268.688 70.9H264.978V51.3V51.055V46.715H268.478V51.055L268.688 51.3V58.125V58.615V70.9ZM273.903 62.745C273.133 62.745 272.398 62.6283 271.698 62.395C270.998 62.1617 270.368 61.8583 269.808 61.485C269.271 61.0883 268.816 60.6217 268.443 60.085C268.093 59.5483 267.848 58.9767 267.708 58.37V54.66H268.688C268.688 55.3367 268.793 55.9667 269.003 56.55C269.213 57.1333 269.505 57.6467 269.878 58.09C270.251 58.5333 270.706 58.8833 271.243 59.14C271.803 59.3733 272.41 59.49 273.063 59.49C273.693 59.49 274.276 59.385 274.813 59.175C275.35 58.9417 275.816 58.615 276.213 58.195C276.61 57.7517 276.913 57.2267 277.123 56.62C277.333 56.0133 277.438 55.3367 277.438 54.59C277.438 53.7967 277.321 53.0967 277.088 52.49C276.878 51.8833 276.563 51.3817 276.143 50.985C275.746 50.565 275.28 50.25 274.743 50.04C274.23 49.83 273.67 49.725 273.063 49.725C272.386 49.725 271.768 49.8533 271.208 50.11C270.671 50.3433 270.216 50.67 269.843 51.09C269.47 51.51 269.178 52 268.968 52.56C268.781 53.12 268.688 53.7267 268.688 54.38H267.883V50.495C267.953 49.9817 268.151 49.48 268.478 48.99C268.805 48.5 269.225 48.0683 269.738 47.695C270.275 47.2983 270.893 46.995 271.593 46.785C272.293 46.5517 273.063 46.435 273.903 46.435C274.906 46.435 275.863 46.6333 276.773 47.03C277.683 47.4033 278.476 47.9517 279.153 48.675C279.83 49.375 280.366 50.2267 280.763 51.23C281.183 52.2333 281.393 53.3533 281.393 54.59C281.393 55.8267 281.183 56.9467 280.763 57.95C280.343 58.9533 279.783 59.8167 279.083 60.54C278.406 61.24 277.613 61.7883 276.703 62.185C275.816 62.5583 274.883 62.745 273.903 62.745ZM294.705 62.5L288.72 54.38L293.48 46.715H297.435V47.205L291.905 55.29V52.805L298.87 61.975V62.5H294.705ZM287.285 55.535V52.91H290.995V55.535H287.285ZM284.905 62.5V58.615V58.09V51.3V51.055V38H288.615V51.055V51.3V62.5H284.905Z" fill="white"/>
</svg>
