<svg width="300" height="100" viewBox="0 0 300 100" fill="none" xmlns="http://www.w3.org/2000/svg">
<g clip-path="url(#clip0_1_734)">
<path d="M275.462 0.000325H23.8475C22.9303 0.000325 22.0242 0.000325 21.1094 0.005325C20.3437 0.010325 19.5841 0.02485 18.811 0.037075C17.1315 0.0568295 15.456 0.204516 13.799 0.47885C12.1443 0.759157 10.5415 1.28761 9.04465 2.04635C7.54967 2.8115 6.18366 3.80574 4.99619 4.993C3.80248 6.17692 2.80743 7.54537 2.0493 9.04572C1.28908 10.5431 0.761946 12.1477 0.486095 13.804C0.207621 15.4583 0.0577721 17.1316 0.0378922 18.809C0.0146817 19.5755 0.0122305 20.3446 0 21.1112V78.8968C0.0122305 79.6731 0.0146817 80.4251 0.0378922 81.2016C0.0577782 82.8789 0.207628 84.5521 0.486095 86.2063C0.761185 87.8636 1.28835 89.4691 2.0493 90.9671C2.80709 92.4626 3.80227 93.8255 4.99619 95.0028C6.17916 96.1954 7.54605 97.1903 9.04465 97.9496C10.5414 98.7103 12.1441 99.2419 13.799 99.5266C15.4563 99.7987 17.1317 99.9465 18.811 99.9686C19.5841 99.9856 20.3437 99.9953 21.1094 99.9953C22.0242 100 22.9304 100 23.8475 100H275.462C276.361 100 277.274 100 278.173 99.9953C278.935 99.9953 279.717 99.9856 280.479 99.9686C282.155 99.9476 283.827 99.7999 285.481 99.5266C287.141 99.2399 288.75 98.7085 290.254 97.9496C291.751 97.1898 293.117 96.1949 294.299 95.0028C295.489 93.8209 296.487 92.459 297.254 90.9671C298.009 89.468 298.531 87.8627 298.802 86.2063C299.081 84.5519 299.236 82.879 299.267 81.2016C299.276 80.4251 299.276 79.6731 299.276 78.8968C299.296 77.9886 299.296 77.0853 299.296 76.1623V23.8406C299.296 22.9251 299.296 22.0169 299.276 21.1112C299.276 20.3446 299.276 19.5755 299.267 18.8089C299.236 17.1314 299.081 15.4584 298.802 13.8039C298.53 12.1485 298.008 10.5441 297.254 9.04562C295.71 6.03831 293.262 3.59039 290.254 2.04612C288.75 1.28924 287.141 0.760926 285.481 0.478625C283.827 0.203082 282.155 0.0553444 280.479 0.036725C279.717 0.024525 278.935 0.009875 278.173 0.005C277.274 0 276.361 0.000325 275.462 0.000325Z" fill="#A6A6A6"/>
<path d="M21.1216 97.8125C20.3596 97.8125 19.6159 97.8027 18.8599 97.7858C17.2936 97.7654 15.731 97.6291 14.1849 97.378C12.7432 97.1298 11.3466 96.6682 10.0412 96.0083C8.74767 95.3538 7.56792 94.4957 6.54707 93.4668C5.51146 92.4499 4.64926 91.2706 3.99464 89.9755C3.33282 88.672 2.87479 87.2747 2.63653 85.8325C2.37922 84.2828 2.24001 82.7158 2.22009 81.145C2.20423 80.6178 2.18347 78.8623 2.18347 78.8623V21.1108C2.18347 21.1108 2.20558 19.3823 2.22021 18.8745C2.23929 17.3062 2.37769 15.7416 2.63423 14.1943C2.87293 12.7481 3.33131 11.3469 3.99349 10.0391C4.6457 8.74486 5.50311 7.56465 6.53249 6.5442C7.56072 5.51405 8.74425 4.65151 10.0399 3.98802C11.3424 3.33023 12.7363 2.87183 14.1751 2.62818C15.7263 2.37459 17.2943 2.23749 18.866 2.21803L21.1228 2.1875H278.161L280.444 2.21925C282.002 2.23775 283.556 2.37362 285.093 2.62572C286.546 2.87244 287.954 3.33404 289.272 3.99535C291.867 5.33247 293.98 7.44791 295.312 10.0452C295.964 11.3439 296.415 12.7338 296.651 14.1675C296.91 15.7275 297.055 17.3043 297.085 18.8855C297.092 19.5935 297.092 20.354 297.092 21.1108C297.112 22.0483 297.112 22.9407 297.112 23.8403V76.162C297.112 77.0703 297.112 77.9565 297.092 78.85C297.092 79.663 297.092 80.4078 297.083 81.1742C297.054 82.7272 296.911 84.2759 296.655 85.808C296.422 87.2607 295.966 88.6688 295.305 89.983C294.645 91.264 293.788 92.4332 292.765 93.4473C291.743 94.4817 290.561 95.3449 289.264 96.0035C287.951 96.6685 286.544 97.1318 285.093 97.378C283.547 97.6304 281.984 97.7667 280.417 97.7858C279.685 97.8027 278.918 97.8125 278.173 97.8125L275.462 97.8175L21.1216 97.8125Z" fill="black"/>
<path d="M61.9502 50.7517C61.9771 48.665 62.5316 46.6191 63.5622 44.8042C64.5927 42.9893 66.0658 41.4645 67.8443 40.3715C66.7145 38.7586 65.2239 37.4313 63.4911 36.4949C61.7582 35.5585 59.8308 35.0389 57.8619 34.9773C53.6619 34.5367 49.5902 37.4894 47.4499 37.4894C45.2683 37.4894 41.973 35.0211 38.4246 35.0941C36.1294 35.1682 33.8925 35.8353 31.9319 37.0305C29.9713 38.2256 28.3539 39.908 27.2372 41.9137C22.4 50.2848 26.0081 62.5874 30.6417 69.3539C32.96 72.6673 35.6695 76.3684 39.2147 76.2372C42.6839 76.0934 43.9796 74.026 48.1673 74.026C52.316 74.026 53.5317 76.2372 57.1488 76.1537C60.8715 76.0933 63.2169 72.8256 65.4539 69.4809C67.1196 67.12 68.4013 64.5107 69.2516 61.7496C67.0889 60.8353 65.2433 59.3048 63.9449 57.3491C62.6465 55.3934 61.9528 53.0989 61.9502 50.7517Z" fill="white"/>
<path d="M55.1181 30.5272C57.1479 28.0917 58.1478 24.9612 57.9057 21.8007C54.8047 22.1262 51.9403 23.6076 49.8831 25.9497C48.8773 27.0938 48.1069 28.4249 47.6161 29.8669C47.1253 31.3088 46.9236 32.8333 47.0225 34.3532C48.5736 34.3691 50.108 34.0331 51.5103 33.3704C52.9126 32.7077 54.1462 31.7355 55.1181 30.5272Z" fill="white"/>
<path d="M105.804 67.8492H93.9647L91.1217 76.2403H86.1072L97.3208 45.1953H102.531L113.744 76.2403H108.644L105.804 67.8492ZM95.1909 63.9771H104.575L99.949 50.3589H99.8195L95.1909 63.9771Z" fill="white"/>
<path d="M137.962 64.9244C137.962 71.9581 134.195 76.4771 128.512 76.4771C127.072 76.5524 125.64 76.2209 124.38 75.5205C123.12 74.8202 122.083 73.7793 121.387 72.5171H121.279V83.728H116.631V53.606H121.13V57.3706H121.216C121.944 56.1145 122.998 55.079 124.268 54.3744C125.538 53.6698 126.975 53.3224 128.426 53.3692C134.173 53.3692 137.962 57.9102 137.962 64.9244ZM133.184 64.9244C133.184 60.3419 130.815 57.3291 127.2 57.3291C123.649 57.3291 121.26 60.4053 121.26 64.9244C121.26 69.4849 123.649 72.5391 127.2 72.5391C130.815 72.5391 133.184 69.5484 133.184 64.9244Z" fill="white"/>
<path d="M162.885 64.9243C162.885 71.958 159.119 76.4771 153.435 76.4771C151.995 76.5523 150.563 76.2208 149.303 75.5205C148.043 74.8201 147.006 73.7793 146.31 72.5171H146.203V83.728H141.555V53.606H146.054V57.3706H146.139C146.867 56.1145 147.922 55.079 149.191 54.3744C150.461 53.6698 151.898 53.3224 153.349 53.3692C159.097 53.3692 162.885 57.9102 162.885 64.9243ZM158.108 64.9243C158.108 60.3418 155.738 57.3291 152.123 57.3291C148.572 57.3291 146.183 60.4053 146.183 64.9243C146.183 69.4849 148.572 72.5391 152.123 72.5391C155.738 72.5391 158.108 69.5484 158.108 64.9243Z" fill="white"/>
<path d="M179.357 67.5903C179.702 70.669 182.694 72.6903 186.783 72.6903C190.7 72.6903 193.519 70.6689 193.519 67.893C193.519 65.4833 191.819 64.0405 187.794 63.0517L183.769 62.0824C178.065 60.7055 175.418 58.0394 175.418 53.7133C175.418 48.3568 180.088 44.6776 186.719 44.6776C193.282 44.6776 197.781 48.3568 197.933 53.7133H193.241C192.96 50.6151 190.398 48.745 186.653 48.745C182.909 48.745 180.347 50.6371 180.347 53.391C180.347 55.5858 181.983 56.8773 185.986 57.866L189.408 58.7059C195.781 60.2122 198.429 62.7709 198.429 67.3118C198.429 73.1199 193.8 76.7576 186.438 76.7576C179.55 76.7576 174.9 73.2054 174.599 67.5901L179.357 67.5903Z" fill="white"/>
<path d="M208.46 48.2495V53.606H212.766V57.2852H208.46V69.7632C208.46 71.7017 209.322 72.605 211.215 72.605C211.726 72.5961 212.237 72.5602 212.744 72.4975V76.1547C211.893 76.3137 211.028 76.3856 210.162 76.3696C205.578 76.3696 203.79 74.6484 203.79 70.2587V57.2852H200.497V53.606H203.79V48.2495H208.46Z" fill="white"/>
<path d="M215.26 64.9243C215.26 57.8027 219.456 53.3276 226 53.3276C232.565 53.3276 236.742 57.8026 236.742 64.9243C236.742 72.0654 232.587 76.521 226 76.521C219.415 76.521 215.26 72.0654 215.26 64.9243ZM232.006 64.9243C232.006 60.0391 229.766 57.1558 226 57.1558C222.233 57.1558 219.996 60.061 219.996 64.9243C219.996 69.8291 222.233 72.6904 226 72.6904C229.766 72.6904 232.006 69.8291 232.006 64.9243Z" fill="white"/>
<path d="M240.574 53.606H245.007V57.4585H245.115C245.415 56.2553 246.12 55.192 247.112 54.4473C248.104 53.7026 249.322 53.3219 250.562 53.3692C251.097 53.3673 251.631 53.4254 252.154 53.5425V57.8882C251.478 57.6817 250.772 57.5868 250.066 57.6075C249.39 57.5801 248.717 57.6991 248.092 57.9563C247.467 58.2135 246.906 58.6029 246.446 59.0976C245.985 59.5923 245.638 60.1807 245.427 60.8224C245.215 61.4641 245.146 62.1438 245.222 62.815V76.2403H240.574L240.574 53.606Z" fill="white"/>
<path d="M273.585 69.5923C272.959 73.7012 268.956 76.521 263.834 76.521C257.247 76.521 253.158 72.1094 253.158 65.0317C253.158 57.9321 257.269 53.3276 263.639 53.3276C269.904 53.3276 273.844 57.6294 273.844 64.4922V66.084H257.85V66.3647C257.776 67.1977 257.881 68.0369 258.156 68.8265C258.432 69.6161 258.872 70.3381 259.448 70.9444C260.024 71.5508 260.723 72.0277 261.498 72.3435C262.273 72.6592 263.106 72.8066 263.942 72.7759C265.04 72.8787 266.142 72.6245 267.085 72.0509C268.027 71.4772 268.759 70.615 269.171 69.5923L273.585 69.5923ZM257.872 62.8369H269.193C269.235 62.0879 269.121 61.3384 268.859 60.6354C268.598 59.9323 268.193 59.291 267.672 58.7516C267.15 58.2122 266.523 57.7863 265.829 57.5008C265.135 57.2152 264.389 57.0762 263.639 57.0923C262.882 57.0878 262.132 57.2331 261.431 57.52C260.731 57.8068 260.094 58.2295 259.558 58.7636C259.022 59.2977 258.597 59.9326 258.307 60.6317C258.018 61.3309 257.87 62.0803 257.872 62.8369Z" fill="white"/>
<path d="M91.8874 28.1336H93.883C94.2265 28.1764 94.5751 28.1475 94.9069 28.0489C95.2388 27.9503 95.5466 27.7841 95.8109 27.5607C96.0753 27.3372 96.2904 27.0615 96.4429 26.7509C96.5954 26.4402 96.6818 26.1014 96.6967 25.7557C96.6967 24.3799 95.6611 23.4913 93.9049 23.4913C93.553 23.4421 93.1948 23.4639 92.8514 23.5555C92.508 23.647 92.1865 23.8063 91.9058 24.0241C91.6251 24.2419 91.3908 24.5137 91.2169 24.8235C91.043 25.1333 90.933 25.4747 90.8933 25.8277H88.7023C88.74 25.1869 88.9093 24.5608 89.1996 23.9883C89.4899 23.4158 89.895 22.9091 90.3897 22.4998C90.8843 22.0906 91.458 21.7875 92.075 21.6094C92.6919 21.4314 93.3389 21.3822 93.9757 21.4649C96.914 21.4649 98.983 23.1092 98.983 25.4761C98.9899 26.2691 98.7245 27.0404 98.231 27.6613C97.7376 28.2823 97.046 28.7152 96.2718 28.888V29.0638C97.1897 29.1045 98.0541 29.5068 98.6761 30.1827C99.2982 30.8586 99.6271 31.7533 99.5911 32.6709C99.5232 33.3307 99.3242 33.9702 99.0058 34.5521C98.6874 35.1339 98.256 35.6464 97.7368 36.0594C97.2177 36.4725 96.6213 36.7778 95.9826 36.9575C95.3439 37.1371 94.6758 37.1876 94.0173 37.1058C93.3575 37.1957 92.6863 37.1519 92.0438 36.977C91.4012 36.8021 90.8005 36.4997 90.2774 36.0878C89.7543 35.6758 89.3195 35.1629 88.999 34.5794C88.6785 33.996 88.4787 33.354 88.4117 32.6917H90.6369C90.7712 34.1187 92.0829 35.0392 94.0173 35.0392C95.9518 35.0392 97.2146 34.0053 97.2146 32.5478C97.2146 31.0695 96.025 30.1588 93.9465 30.1588H91.8874V28.1336Z" fill="white"/>
<path d="M102.119 33.5609C102.119 31.5345 103.631 30.3663 106.308 30.2003L109.359 30.0245V29.0528C109.359 27.8639 108.575 27.1925 107.053 27.1925C105.812 27.1925 104.955 27.6478 104.706 28.4437H102.554C102.781 26.5101 104.603 25.2699 107.158 25.2699C109.982 25.2699 111.574 26.6749 111.574 29.0528V36.7445H109.432V35.1625H109.256C108.899 35.73 108.398 36.1926 107.804 36.5031C107.209 36.8136 106.543 36.9609 105.873 36.93C105.4 36.9791 104.923 36.9287 104.471 36.782C104.018 36.6352 103.602 36.3954 103.248 36.078C102.895 35.7606 102.611 35.3726 102.417 34.939C102.222 34.5055 102.121 34.036 102.119 33.5609ZM109.359 32.599V31.6578L106.608 31.8336C105.057 31.9373 104.354 32.4647 104.354 33.4571C104.354 34.4703 105.233 35.0599 106.442 35.0599C106.797 35.0958 107.155 35.06 107.495 34.9548C107.835 34.8496 108.15 34.677 108.423 34.4474C108.695 34.2178 108.918 33.9359 109.079 33.6183C109.239 33.3007 109.335 32.9541 109.359 32.599Z" fill="white"/>
<path d="M117.473 27.3572V36.7444H115.25V25.4871H122.666V27.3571L117.473 27.3572Z" fill="white"/>
<path d="M136.136 31.1109C136.136 34.6875 134.326 36.93 131.483 36.93C130.785 36.9776 130.088 36.8249 129.474 36.4899C128.86 36.155 128.355 35.6516 128.017 35.0391H127.841V40.4871H125.619V25.4871H127.758V27.3475H127.924C128.268 26.7136 128.78 26.187 129.404 25.8257C130.028 25.4644 130.74 25.2826 131.461 25.3004C134.326 25.3003 136.136 27.533 136.136 31.1109ZM133.85 31.1109C133.85 28.7329 132.724 27.2962 130.841 27.2962C128.97 27.2962 127.8 28.7634 127.8 31.1206C127.8 33.4668 128.97 34.9353 130.831 34.9353C132.724 34.9353 133.85 33.4985 133.85 31.1109Z" fill="white"/>
<path d="M139.096 40.7764V38.8635C139.337 38.8941 139.579 38.908 139.822 38.905C140.295 38.9401 140.765 38.7991 141.141 38.5092C141.517 38.2192 141.773 37.8007 141.859 37.334L142.025 36.7859L137.948 25.4871H140.369L143.192 34.4287H143.368L146.182 25.4871H148.539L144.34 37.2095C143.378 39.9487 142.313 40.8277 140.017 40.8277C139.832 40.8276 139.304 40.8069 139.096 40.7764Z" fill="white"/>
<path d="M150.271 33.5498H152.484C152.701 34.5423 153.632 35.0598 154.934 35.0598C156.414 35.0598 157.322 34.408 157.322 33.3948C157.322 32.3096 156.507 31.792 154.934 31.792H153.248V30.066H154.904C156.248 30.066 156.931 29.5496 156.931 28.6085C156.931 27.782 156.27 27.151 154.904 27.151C153.661 27.151 152.752 27.6783 152.608 28.567H150.466C150.626 27.5458 151.181 26.6283 152.011 26.0117C152.841 25.3951 153.88 25.1287 154.904 25.2699C157.581 25.2699 159.113 26.4796 159.113 28.3814C159.125 28.9111 158.955 29.4289 158.632 29.8484C158.308 30.2679 157.85 30.5636 157.334 30.6861V30.8619C157.948 30.9411 158.512 31.2427 158.918 31.7096C159.324 32.1765 159.545 32.7762 159.538 33.3949C159.538 35.5349 157.716 36.9508 154.934 36.9508C152.474 36.9507 150.476 35.824 150.271 33.5498Z" fill="white"/>
<path d="M162.739 36.7444V25.4871H164.942V33.23H165.118L170.308 25.4871H172.511V36.7444H170.308V28.96H170.142L164.942 36.7444L162.739 36.7444Z" fill="white"/>
<path d="M184.648 27.3572H181.101V36.7444H178.876V27.3572H175.33V25.4872H184.648V27.3572Z" fill="white"/>
<path d="M196.621 33.7049C196.318 34.7337 195.663 35.6235 194.771 36.2187C193.879 36.814 192.805 37.077 191.739 36.9617C190.997 36.9813 190.259 36.8393 189.578 36.5454C188.896 36.2516 188.287 35.8131 187.792 35.2602C187.297 34.7074 186.928 34.0535 186.711 33.3439C186.494 32.6344 186.435 31.8861 186.536 31.1512C186.437 30.414 186.498 29.6641 186.714 28.9525C186.931 28.2408 187.297 27.5839 187.79 27.0262C188.282 26.4685 188.889 26.0231 189.568 25.7201C190.248 25.417 190.985 25.2635 191.729 25.2698C194.863 25.2698 196.756 27.4098 196.756 30.9448V31.7201H188.803V31.8446C188.768 32.2578 188.819 32.6738 188.954 33.0658C189.09 33.4579 189.305 33.8173 189.588 34.1211C189.87 34.4248 190.213 34.6661 190.595 34.8295C190.976 34.9928 191.387 35.0746 191.802 35.0696C192.333 35.1331 192.872 35.0372 193.348 34.7942C193.825 34.5512 194.219 34.172 194.479 33.7048L196.621 33.7049ZM188.803 30.077H194.489C194.517 29.6994 194.466 29.32 194.338 28.9634C194.211 28.6067 194.011 28.2806 193.75 28.006C193.489 27.7314 193.174 27.5143 192.824 27.3687C192.474 27.2232 192.098 27.1523 191.719 27.1607C191.335 27.1555 190.953 27.2274 190.597 27.3721C190.24 27.5168 189.917 27.7315 189.645 28.0033C189.373 28.2752 189.158 28.5988 189.014 28.9549C188.869 29.3111 188.797 29.6926 188.803 30.077Z" fill="white"/>
<path d="M206.044 25.4871H211.122C213.326 25.4871 214.618 26.6028 214.618 28.3496C214.621 28.9038 214.434 29.4425 214.088 29.8753C213.741 30.3082 213.257 30.609 212.715 30.7275V30.9033C213.373 30.9448 213.989 31.2373 214.437 31.7202C214.886 32.2032 215.131 32.8398 215.123 33.4985C215.123 35.4626 213.645 36.7443 211.174 36.7443H206.044V25.4871ZM208.248 27.1924V30.1074H210.451C211.794 30.1074 212.436 29.591 212.436 28.6389C212.436 27.7612 211.877 27.1924 210.697 27.1924L208.248 27.1924ZM208.248 31.7407V35.0391H210.883C212.197 35.0391 212.901 34.4593 212.901 33.3948C212.901 32.2681 212.104 31.7408 210.605 31.7408L208.248 31.7407Z" fill="white"/>
</g>
<defs>
<clipPath id="clip0_1_734">
<rect width="299.296" height="100" fill="white"/>
</clipPath>
</defs>
</svg>
