<svg width="46" height="46" viewBox="0 0 46 46" fill="none" xmlns="http://www.w3.org/2000/svg">
<path d="M23 3.83342L23 19.1667M23 19.1667L28.75 13.4167M23 19.1667L17.25 13.4167" stroke="#0085FF" stroke-width="3" stroke-linecap="round" stroke-linejoin="round"/>
<path d="M3.83331 24.9167H9.89048C11.6254 24.9167 12.4928 24.9167 13.2553 25.2674C14.0178 25.6181 14.5824 26.2768 15.7114 27.594L16.8718 28.9478C18.0009 30.2651 18.5654 30.9237 19.3279 31.2744C20.0904 31.6251 20.9579 31.6251 22.6928 31.6251H23.3071C25.0421 31.6251 25.9095 31.6251 26.672 31.2744C27.4345 30.9237 27.999 30.2651 29.1281 28.9478L30.2885 27.594C31.4176 26.2768 31.9821 25.6181 32.7446 25.2674C33.5071 24.9167 34.3746 24.9167 36.1095 24.9167H42.1666" stroke="#0085FF" stroke-width="3" stroke-linecap="round"/>
<path d="M32.5833 4.07666C35.6982 4.38304 37.7948 5.07548 39.3598 6.64039C42.1666 9.44729 42.1666 13.9649 42.1666 23.0002C42.1666 32.0354 42.1666 36.553 39.3598 39.3599C36.5529 42.1668 32.0352 42.1668 23 42.1668C13.9647 42.1668 9.4471 42.1668 6.64021 39.3599C3.83331 36.553 3.83331 32.0354 3.83331 23.0002C3.83331 13.9649 3.83331 9.44729 6.64021 6.64039C8.20512 5.07548 10.3018 4.38304 13.4166 4.07666" stroke="#0085FF" stroke-width="3" stroke-linecap="round"/>
</svg>
