<svg width="46" height="46" viewBox="0 0 46 46" fill="none" xmlns="http://www.w3.org/2000/svg">
<rect width="46" height="46" rx="23" fill="#0085FF"/>
<path d="M13.375 33.75V22.5C13.375 20.3787 13.375 19.318 14.034 18.659C14.693 18 15.7537 18 17.875 18C19.9963 18 21.057 18 21.716 18.659C22.375 19.318 22.375 20.3787 22.375 22.5" stroke="white" stroke-width="1.5"/>
<path d="M29.125 33.75V27C29.125 24.8787 29.125 23.818 28.466 23.159C27.807 22.5 26.7463 22.5 24.625 22.5H22.375C20.2537 22.5 19.193 22.5 18.534 23.159C17.875 23.818 17.875 24.8787 17.875 27V33.75" stroke="white" stroke-width="1.5"/>
<path d="M33.625 33.7501V17.7436C33.625 16.2352 33.625 15.4809 33.2243 14.9028C32.8237 14.3246 32.1175 14.0598 30.7051 13.5301C27.9429 12.4943 26.5618 11.9764 25.5934 12.6475C24.625 13.3186 24.625 14.7936 24.625 17.7436V22.5001" stroke="white" stroke-width="1.5"/>
<path d="M14.5 18V16.3125C14.5 15.2518 14.5 14.7215 14.8295 14.392C15.159 14.0625 15.6893 14.0625 16.75 14.0625H19C20.0607 14.0625 20.591 14.0625 20.9205 14.392C21.25 14.7215 21.25 15.2518 21.25 16.3125V18" stroke="white" stroke-width="1.5" stroke-linecap="round"/>
<path d="M17.875 13.5V11.25" stroke="white" stroke-width="1.5" stroke-linecap="round"/>
<path d="M34.75 33.75L12.25 33.75" stroke="white" stroke-width="1.5" stroke-linecap="round"/>
<path d="M21.25 25.875H25.75" stroke="white" stroke-width="1.5" stroke-linecap="round"/>
<path d="M21.25 29.25H25.75" stroke="white" stroke-width="1.5" stroke-linecap="round"/>
</svg>
