<svg width="46" height="46" viewBox="0 0 46 46" fill="none" xmlns="http://www.w3.org/2000/svg">
<rect width="46" height="46" rx="23" fill="#0085FF"/>
<path d="M31.5914 23.1523C31.5168 20.6749 30.6147 18.5714 28.8851 16.8417C27.1554 15.1121 25.0519 14.21 22.5745 14.1354V12.198C24.0815 12.2311 25.4923 12.5399 26.8072 13.1245C28.1221 13.7091 29.2705 14.4924 30.2525 15.4743C31.2345 16.4563 32.0177 17.6048 32.6023 18.9196C33.1869 20.2344 33.4957 21.6453 33.5288 23.1523H31.5914ZM26.4247 23.1523C26.3502 22.1173 25.9486 21.2334 25.22 20.5006C24.4913 19.7679 23.6095 19.3683 22.5745 19.3021V17.3647C24.146 17.4309 25.4849 18.0192 26.5911 19.1295C27.6973 20.2398 28.2876 21.5808 28.3621 23.1523H26.4247ZM32.1105 34.4792C29.6762 34.4792 27.2307 33.9133 24.7741 32.7814C22.3174 31.6495 20.0583 30.0527 17.9966 27.991C15.9432 25.9294 14.3505 23.6723 13.2187 21.2198C12.0868 18.7673 11.5209 16.3239 11.5209 13.8896C11.5209 13.5021 11.65 13.1771 11.9084 12.9146C12.1667 12.6522 12.4896 12.5209 12.8771 12.5209H17.0899C17.4161 12.5209 17.7039 12.6273 17.9531 12.8401C18.2023 13.0529 18.3609 13.3158 18.4287 13.6288L19.169 17.4292C19.2203 17.7819 19.2095 18.085 19.1367 18.3384C19.0638 18.5917 18.933 18.8045 18.7442 18.9767L15.761 21.8805C16.2412 22.7598 16.7898 23.5915 17.4066 24.3756C18.0235 25.1598 18.6912 25.9087 19.4099 26.6224C20.1187 27.3312 20.8722 27.9894 21.6704 28.5972C22.4686 29.2049 23.3305 29.7705 24.2562 30.2937L27.155 27.3701C27.357 27.1598 27.6017 27.0124 27.889 26.928C28.1763 26.8435 28.4748 26.8228 28.7845 26.8659L32.3713 27.5962C32.6975 27.6823 32.9637 27.8487 33.1699 28.0954C33.3761 28.3422 33.4791 28.622 33.4791 28.935V33.1229C33.4791 33.5104 33.3479 33.8334 33.0854 34.0917C32.8229 34.35 32.498 34.4792 32.1105 34.4792ZM14.8444 20.0474L17.1495 17.8416C17.1909 17.8085 17.2178 17.7629 17.2303 17.705C17.2427 17.647 17.2406 17.5932 17.2241 17.5435L16.6627 14.6571C16.6461 14.5909 16.6171 14.5412 16.5757 14.5081C16.5343 14.4749 16.4805 14.4584 16.4143 14.4584H13.6521C13.6024 14.4584 13.561 14.4749 13.5279 14.5081C13.4948 14.5412 13.4782 14.5826 13.4782 14.6323C13.5444 15.5149 13.6889 16.4116 13.9117 17.3224C14.1344 18.2332 14.4453 19.1415 14.8444 20.0474ZM26.0819 31.2103C26.938 31.6094 27.831 31.9145 28.7608 32.1257C29.6907 32.3368 30.5597 32.4622 31.3678 32.502C31.4175 32.502 31.4589 32.4854 31.492 32.4523C31.5251 32.4192 31.5417 32.3778 31.5417 32.3281V29.6106C31.5417 29.5444 31.5251 29.4906 31.492 29.4491C31.4589 29.4077 31.4092 29.3788 31.343 29.3622L28.6305 28.8108C28.5808 28.7942 28.5373 28.7922 28.5001 28.8046C28.4628 28.817 28.4235 28.8439 28.3821 28.8853L26.0819 31.2103Z" fill="white"/>
</svg>
