<svg width="46" height="46" viewBox="0 0 46 46" fill="none" xmlns="http://www.w3.org/2000/svg">
<rect width="46" height="46" rx="23" fill="#0085FF"/>
<path d="M13.3847 32.3749C12.7532 32.3749 12.2188 32.1562 11.7813 31.7187C11.3438 31.2812 11.125 30.7467 11.125 30.1153V15.8846C11.125 15.2532 11.3438 14.7188 11.7813 14.2812C12.2188 13.8438 12.7532 13.625 13.3847 13.625H32.6153C33.2468 13.625 33.7812 13.8438 34.2187 14.2812C34.6562 14.7188 34.875 15.2532 34.875 15.8846V30.1153C34.875 30.7467 34.6562 31.2812 34.2187 31.7187C33.7812 32.1562 33.2468 32.3749 32.6153 32.3749H13.3847ZM23 23.697L13 17.3028V30.1153C13 30.2275 13.0361 30.3197 13.1082 30.3918C13.1803 30.4639 13.2725 30.5 13.3847 30.5H32.6153C32.7275 30.5 32.8197 30.4639 32.8918 30.3918C32.9639 30.3197 33 30.2275 33 30.1153V17.3028L23 23.697ZM23 21.75L32.8077 15.5H13.1923L23 21.75ZM13 17.3028V15.5V30.1153C13 30.2275 13.0361 30.3197 13.1082 30.3918C13.1803 30.4639 13.2725 30.5 13.3847 30.5H13V17.3028Z" fill="white"/>
</svg>
