<svg width="638" height="556" viewBox="0 0 638 556" fill="none" xmlns="http://www.w3.org/2000/svg">
<g clip-path="url(#clip0_1_1886)">
<path d="M594.552 555.368V495.134C594.552 495.134 618.045 537.837 594.552 555.368Z" fill="#F1F1F1"/>
<path d="M596.003 555.357L551.595 514.623C551.595 514.623 598.966 526.21 596.003 555.357Z" fill="#F1F1F1"/>
<path d="M225.181 107.23H222.7V39.3102C222.7 28.8845 218.555 18.8858 211.177 11.5137C203.798 4.14161 193.792 6.62511e-06 183.357 1.06708e-10H39.3423C34.1758 -1.20279e-05 29.0599 1.01676 24.2867 2.99228C19.5135 4.96779 15.1764 7.86335 11.5231 11.5136C7.86986 15.1639 4.97192 19.4974 2.99478 24.2668C1.01764 29.0361 8.7548e-06 34.1478 0 39.3101V411.924C-8.84054e-06 422.35 4.14496 432.349 11.5231 439.721C18.9012 447.093 28.908 451.234 39.3422 451.234H183.357C193.791 451.234 203.798 447.093 211.176 439.721C218.554 432.349 222.7 422.35 222.7 411.924V155.577H225.181V107.23Z" fill="#3F3D56"/>
<path d="M184.945 10.2271H166.146C167.01 12.3449 167.34 14.6426 167.107 16.9178C166.873 19.193 166.083 21.3759 164.807 23.2742C163.53 25.1725 161.805 26.7279 159.785 27.8034C157.765 28.879 155.511 29.4416 153.222 29.4418H70.7179C68.4289 29.4416 66.1751 28.879 64.1549 27.8034C62.1348 26.7279 60.4104 25.1725 59.1336 23.2742C57.8568 21.3759 57.0668 19.193 56.8333 16.9178C56.5997 14.6426 56.9297 12.3449 57.7942 10.2271H40.2362C36.3779 10.2271 32.5574 10.9864 28.9928 12.4617C25.4282 13.937 22.1893 16.0994 19.4611 18.8254C16.7329 21.5514 14.5687 24.7876 13.0922 28.3493C11.6157 31.911 10.8557 35.7283 10.8557 39.5835V411.651C10.8557 415.506 11.6157 419.323 13.0922 422.885C14.5687 426.447 16.7328 429.683 19.461 432.409C22.1892 435.135 25.4281 437.297 28.9927 438.773C32.5573 440.248 36.3778 441.007 40.2361 441.007H184.945C192.737 441.007 200.21 437.914 205.72 432.409C211.23 426.904 214.325 419.437 214.325 411.651V39.5836C214.325 35.7284 213.565 31.911 212.089 28.3493C210.612 24.7877 208.448 21.5514 205.72 18.8254C202.992 16.0994 199.753 13.937 196.188 12.4617C192.623 10.9864 188.803 10.2271 184.945 10.2271Z" fill="white"/>
<path d="M112.59 287.832C151.456 287.832 182.962 256.351 182.962 217.517C182.962 178.684 151.456 147.203 112.59 147.203C73.7251 147.203 42.2186 178.684 42.2186 217.517C42.2186 256.351 73.7251 287.832 112.59 287.832Z" fill="#0085FF"/>
<path d="M133.443 222.322L115.943 240.332C115.562 240.716 115.107 241.018 114.606 241.22C114.104 241.421 113.567 241.519 113.027 241.506H112.968C112.427 241.518 111.888 241.42 111.386 241.219C110.883 241.017 110.426 240.715 110.043 240.332L92.5517 222.322C92.4936 222.255 92.4268 222.197 92.3682 222.139C91.6702 221.391 91.2975 220.396 91.3319 219.374C91.3663 218.352 91.805 217.385 92.5517 216.685C93.3505 215.935 94.4055 215.517 95.5018 215.517C96.598 215.517 97.653 215.935 98.4518 216.685L108.818 227.509V199.599C108.867 198.524 109.328 197.509 110.107 196.765C110.885 196.021 111.92 195.606 112.998 195.606C114.075 195.606 115.11 196.021 115.888 196.765C116.667 197.509 117.128 198.524 117.177 199.599V227.509L127.535 216.685C128.335 215.935 129.392 215.517 130.489 215.517C131.587 215.517 132.643 215.935 133.443 216.685C133.502 216.743 133.56 216.802 133.627 216.868C134.323 217.617 134.694 218.611 134.66 219.633C134.626 220.655 134.188 221.621 133.443 222.322Z" fill="white"/>
<path d="M491.882 543.957L481.665 543.956L476.805 504.582L491.884 504.583L491.882 543.957Z" fill="#9F616A"/>
<path d="M494.487 553.853L461.545 553.851V553.435C461.545 550.037 462.896 546.779 465.301 544.376C467.705 541.974 470.966 540.624 474.367 540.624L494.488 540.624L494.487 553.853Z" fill="#2F2E41"/>
<path d="M414.268 543.621L404.398 540.984L409.881 501.691L424.448 505.583L414.268 543.621Z" fill="#9F616A"/>
<path d="M414.227 553.853L382.402 545.349L382.51 544.947C383.389 541.665 385.536 538.866 388.48 537.165C391.424 535.465 394.924 535.002 398.209 535.88L417.647 541.073L414.227 553.853Z" fill="#2F2E41"/>
<path d="M497.759 323.294L506.317 333.228L495.249 535.099H471.609L459.69 379.766L422.735 539.264L398.158 533.242L420.505 330.658L497.759 323.294Z" fill="#2F2E41"/>
<path d="M426.218 192.963L449.757 181.166L485.954 181.802L517.104 197.728L499.381 286.167L507.037 332.28C477.447 339.819 446.468 340.074 416.758 333.022L416.521 332.966C416.521 332.966 434.115 270.586 426.625 251.55L426.218 192.963Z" fill="#CBCBCB"/>
<path d="M494.315 145.828C494.289 138.769 491.461 132.009 486.451 127.032C481.442 122.055 474.661 119.266 467.597 119.279C460.532 119.293 453.762 122.106 448.771 127.102C443.781 132.097 440.978 138.868 440.978 145.926C440.978 152.985 443.781 159.755 448.771 164.751C453.762 169.747 460.532 172.56 467.597 172.573C474.661 172.586 481.442 169.798 486.451 164.821C491.461 159.843 494.289 153.084 494.315 146.025C494.315 145.959 494.315 145.893 494.315 145.828Z" fill="#9F616A"/>
<path d="M455.704 130.602C457.085 129.303 458.905 128.569 460.801 128.547C463.651 128.455 467.92 129.466 469.737 131.78C471.197 133.64 471.267 136.199 471.272 138.563L471.288 145.088C471.292 147.018 471.316 149.031 472.194 150.75C473.071 152.47 475.086 153.776 476.927 153.19C479.11 152.494 480.07 149.595 482.302 149.073C483.977 148.682 485.699 149.905 486.431 151.461C487.05 153.075 487.255 154.817 487.028 156.529C486.817 159.945 481.913 161.301 481.218 164.652C480.817 166.591 479.411 170.459 481.218 169.648C489.552 168.816 493.21 163.952 497.024 159.374L505.626 149.048C506.608 148.023 507.363 146.802 507.841 145.466C508.055 144.53 508.131 143.568 508.069 142.609C508.022 140.043 507.952 137.477 507.859 134.912C507.779 132.671 507.214 129.843 505.017 129.383C503.875 129.143 502.363 129.561 501.759 128.563C501.533 128.062 501.496 127.497 501.656 126.971C502.14 124.41 502.959 121.731 502.115 119.264C500.843 115.543 496.461 114.017 492.589 113.315C488.718 112.613 484.371 112.009 481.941 108.917C481.291 107.89 480.585 106.899 479.828 105.948C478.713 104.936 477.343 104.245 475.865 103.952C471.059 102.736 465.982 103.187 461.465 105.229C459.592 106.083 457.711 107.233 455.657 107.102C453.523 106.967 451.7 105.467 449.593 105.102C446.19 104.512 442.937 107.059 441.26 110.076C439.182 113.815 438.991 118.934 441.926 122.046C443.391 123.598 445.576 124.664 446.184 126.709C446.432 127.542 446.374 128.438 446.593 129.279C446.848 130.115 447.335 130.863 447.997 131.435C448.658 132.007 449.469 132.38 450.334 132.512C452.415 132.851 454.175 131.898 455.704 130.602Z" fill="#2F2E41"/>
<path d="M422.97 257.444C423.476 258.744 424.262 259.918 425.271 260.882C426.281 261.846 427.49 262.577 428.813 263.023C430.136 263.47 431.54 263.621 432.928 263.467C434.316 263.313 435.653 262.856 436.845 262.129L484.639 287.374L486.187 275.74L439.746 248.377C438.391 246.457 436.379 245.1 434.09 244.563C431.801 244.027 429.395 244.348 427.327 245.465C425.259 246.583 423.674 248.419 422.871 250.627C422.067 252.835 422.103 255.26 422.97 257.444Z" fill="#9F616A"/>
<path d="M486.66 259.455C485.881 260.613 484.858 261.587 483.662 262.306C482.466 263.026 481.126 263.476 479.737 263.622C478.349 263.769 476.945 263.61 475.624 263.155C474.304 262.701 473.099 261.963 472.095 260.994L419.931 275.178L420.385 260.408L472.276 246.941C474.018 245.363 476.279 244.479 478.63 244.456C480.981 244.433 483.259 245.272 485.032 246.814C486.805 248.357 487.95 250.496 488.25 252.826C488.55 255.155 487.985 257.514 486.66 259.455Z" fill="#9F616A"/>
<path d="M506.933 198.365L517.104 197.728C517.104 197.728 529.012 213.428 522.407 230.465C522.407 230.465 523.551 291.664 497.176 289.15C470.802 286.636 462.468 286.636 462.468 286.636L470.385 264.571L488.096 259.107C488.096 259.107 482.637 235.048 492.97 225.038L506.933 198.365Z" fill="#CBCBCB"/>
<path d="M433.489 197.827L432.052 190.465C432.052 190.465 410.852 189.967 406.66 222.065C406.66 222.065 387.596 270.103 406.282 276.288C424.968 282.473 445.523 276.288 445.523 276.288L443.975 255.104L423.414 250.911C423.414 250.911 434.035 237.181 428.252 225.272L433.489 197.827Z" fill="#CBCBCB"/>
<path d="M637.167 556H319.667C319.446 556 319.234 555.912 319.077 555.756C318.921 555.6 318.833 555.388 318.833 555.167C318.833 554.947 318.921 554.735 319.077 554.579C319.234 554.422 319.446 554.335 319.667 554.335H637.167C637.388 554.335 637.6 554.422 637.756 554.579C637.912 554.735 638 554.947 638 555.167C638 555.388 637.912 555.6 637.756 555.756C637.6 555.912 637.388 556 637.167 556Z" fill="#CBCBCB"/>
</g>
<defs>
<clipPath id="clip0_1_1886">
<rect width="638" height="556" fill="white"/>
</clipPath>
</defs>
</svg>
