<svg width="45" height="46" viewBox="0 0 45 46" fill="none" xmlns="http://www.w3.org/2000/svg">
<rect y="0.5" width="45" height="45" rx="22.5" fill="#0085FF"/>
<path d="M33.3664 11.4304C32.8643 10.9916 32.1742 10.8786 31.5695 11.1363L11.0928 19.8501C10.1921 20.2408 9.76247 21.3273 10.1332 22.2767C10.325 22.7677 10.7067 23.1488 11.1821 23.324L15.5996 24.9428L17.9935 33.2859C17.9984 33.3029 18.0131 33.3133 18.0193 33.3296C18.0441 33.3961 18.0803 33.4574 18.126 33.5102C18.143 33.5314 18.1616 33.5513 18.1814 33.5697C18.241 33.6219 18.3103 33.6605 18.3848 33.683C18.3962 33.6866 18.4038 33.6972 18.4153 33.7L18.422 33.6997L18.4254 33.7012C18.4635 33.7102 18.5025 33.7145 18.5415 33.7141C18.5925 33.7122 18.643 33.703 18.6916 33.6866C18.701 33.6838 18.7105 33.6846 18.7197 33.6813C18.8026 33.6505 18.8775 33.5999 18.9386 33.5333C18.9457 33.5258 18.9565 33.5244 18.9633 33.5165L22.4076 29.5108L27.4321 33.6118C27.7374 33.8634 28.1138 34.0001 28.5013 34C29.3395 33.9999 30.063 33.381 30.2357 32.5165L33.9646 13.2209C34.0938 12.5535 33.8638 11.8653 33.3664 11.4304ZM19.2435 26.525L18.4353 30.6652L16.7497 24.7891L25.1096 20.2006L19.3987 26.2204C19.3197 26.3037 19.2658 26.4096 19.2435 26.525ZM29.1164 32.2742C29.0726 32.496 28.9224 32.6778 28.7202 32.7542C28.5225 32.8343 28.2993 32.7986 28.1331 32.6601L22.6889 28.2167C22.4532 28.0244 22.1167 28.0556 21.9165 28.2885L19.5215 31.0739L20.3284 26.945L28.5438 18.2842C28.7671 18.0493 28.7674 17.6682 28.5446 17.4329C28.3683 17.2466 28.0977 17.2027 27.8764 17.3243L16.0325 23.8254L11.556 22.1852C11.312 22.1006 11.1461 21.8619 11.1431 21.5911C11.1313 21.3185 11.2844 21.0679 11.5248 20.9665L31.9981 12.2539C32.2119 12.1583 32.4587 12.1983 32.6354 12.3574C32.8111 12.507 32.8919 12.7482 32.8441 12.981L29.1164 32.2742Z" fill="white"/>
</svg>
