<svg width="720" height="529" viewBox="0 0 720 529" fill="none" xmlns="http://www.w3.org/2000/svg">
<g clip-path="url(#clip0_1_1906)">
<path d="M668.88 529V468.93C668.88 468.93 692.304 511.517 668.88 529Z" fill="#F1F1F1"/>
<path d="M670.327 528.989L626.048 488.366C626.048 488.366 673.281 499.921 670.327 528.989Z" fill="#F1F1F1"/>
<path d="M479.041 370.326C478.942 369.226 479.086 368.118 479.463 367.08C479.839 366.042 480.438 365.099 481.219 364.317C481.999 363.536 482.942 362.935 483.98 362.556C485.018 362.178 486.126 362.032 487.227 362.128L495.209 346.823L505.698 349.403L494.122 370.858C493.838 372.695 492.889 374.364 491.456 375.549C490.022 376.734 488.204 377.352 486.345 377.286C484.486 377.221 482.716 376.476 481.37 375.193C480.023 373.91 479.195 372.178 479.041 370.326Z" fill="#FFB7B7"/>
<path d="M526.687 519.426L517.836 519.425L513.625 485.306L526.689 485.307L526.687 519.426Z" fill="#FFB7B7"/>
<path d="M528.945 528.001L500.404 528V527.639C500.404 524.694 501.575 521.871 503.658 519.789C505.741 517.707 508.567 516.537 511.513 516.537L528.945 516.538L528.945 528.001Z" fill="#2F2E41"/>
<path d="M597.878 512.818L589.338 515.145L576.292 483.335L588.896 479.9L597.878 512.818Z" fill="#FFB7B7"/>
<path d="M602.313 520.497L574.778 528.001L574.683 527.653C573.908 524.812 574.293 521.78 575.755 519.224C577.217 516.667 579.635 514.796 582.477 514.021L599.295 509.438L602.313 520.497Z" fill="#2F2E41"/>
<path d="M510.528 372.038L506.113 439.045L515.597 514.223L531.133 509.484L531.788 442.314L544.215 403.581L581.011 507.033L597.855 500.822L583.954 433.652L576.105 370.568L510.528 372.038Z" fill="#2F2E41"/>
<path d="M553.454 254.375L527.292 258.23L517.867 267.545L514.941 301.015L516.758 330.661L509.182 382.941C509.182 382.941 528.234 372.371 543 385.603C557.765 398.835 578.426 387.941 578.851 379.139L553.454 254.375Z" fill="#CBCBCB"/>
<path d="M540.169 296.351L540.169 296.314L553.165 253.977L553.333 253.966C554.258 253.906 576.047 252.623 580.921 263.375L580.945 263.427L579.464 307.423L581.503 376.327L541.204 385.05L540.911 385.114L540.169 296.351Z" fill="#2F2E41"/>
<path d="M525.766 293.425L528.15 257.535C511.194 258.589 511.45 270.603 511.469 271.127L511.284 324.811L507.888 382.244L520.236 381.318L525.766 293.425Z" fill="#2F2E41"/>
<path d="M487.532 358.729L502.586 323.814L513.093 304.531L518.579 339.315L499.532 367.867L487.532 358.729Z" fill="#2F2E41"/>
<path d="M549.746 345.883C549.976 344.803 550.441 343.787 551.107 342.906C551.773 342.025 552.624 341.3 553.6 340.784C554.577 340.267 555.655 339.97 556.758 339.915C557.862 339.86 558.964 340.047 559.987 340.463L572.132 328.193L581.393 333.75L563.999 350.837C563.185 352.509 561.786 353.824 560.066 354.534C558.347 355.243 556.427 355.298 554.67 354.687C552.913 354.076 551.442 352.842 550.534 351.22C549.626 349.597 549.346 347.698 549.746 345.883Z" fill="#FFB7B7"/>
<path d="M559.959 335.984L584.721 308.836L568.33 285.462L570.017 274.035L579.677 262.108L579.866 262.352C580.896 263.684 605.094 295.102 605.788 306.995C606.485 318.933 571.704 349.13 570.223 350.41L570.017 350.588L559.959 335.984Z" fill="#2F2E41"/>
<path d="M538.358 251.434C548.078 251.434 555.958 243.559 555.958 233.845C555.958 224.132 548.078 216.257 538.358 216.257C528.638 216.257 520.758 224.132 520.758 233.845C520.758 243.559 528.638 251.434 538.358 251.434Z" fill="#FFB7B7"/>
<path d="M554.911 219.784L555.764 218.068L551.471 215.936C551.471 215.936 546.735 208.235 538.164 210.399C529.594 212.564 525.738 213.859 525.738 213.859L521.456 216.012L523.605 218.149L519.75 219.445L522.326 220.724L519.328 222.445L520.942 231.271C520.942 231.271 523.622 224.577 528.773 227.135C533.925 229.693 543.349 225.813 543.349 225.813L551.536 241.647C551.536 241.647 553.225 236.096 556.236 237.576C556.236 237.576 563.929 225.332 554.911 219.784Z" fill="#2F2E41"/>
<path d="M355.768 319.363L88.1315 393.127L0 73.7639L267.637 0L355.768 319.363Z" fill="white"/>
<path d="M355.768 319.363L88.1315 393.127L0 73.7639L267.637 0L355.768 319.363ZM91.5509 387.107L349.745 315.946L264.218 6.01984L6.02368 77.1812L91.5509 387.107Z" fill="#F1F1F1"/>
<path d="M209.393 143.069L142.305 161.56C141.359 161.819 140.348 161.693 139.494 161.209C138.641 160.725 138.014 159.922 137.752 158.977L119.25 91.9311C118.991 90.9853 119.117 89.9751 119.601 89.1221C120.086 88.2692 120.889 87.6431 121.835 87.3813L188.923 68.891C189.869 68.6313 190.88 68.7574 191.734 69.2416C192.587 69.7258 193.214 70.5285 193.476 71.4737L211.978 138.52C212.237 139.465 212.111 140.476 211.627 141.329C211.142 142.182 210.339 142.808 209.393 143.069ZM122.228 88.8078C121.661 88.9649 121.179 89.3406 120.888 89.8523C120.597 90.3641 120.522 90.9702 120.678 91.5377L139.18 158.584C139.337 159.151 139.713 159.632 140.225 159.923C140.737 160.213 141.343 160.289 141.911 160.133L209 141.643C209.567 141.486 210.049 141.11 210.34 140.598C210.63 140.087 210.706 139.481 210.55 138.913L192.048 71.8672C191.891 71.3001 191.515 70.8184 191.003 70.5279C190.491 70.2374 189.884 70.1617 189.317 70.3176L122.228 88.8078Z" fill="#E5E5E5"/>
<path d="M192.387 156.583L125.299 175.073C124.447 175.307 123.537 175.194 122.769 174.758C122.001 174.322 121.437 173.599 121.201 172.749L102.699 105.703C102.465 104.852 102.579 103.942 103.015 103.175C103.451 102.407 104.174 101.844 105.025 101.608L172.113 83.1177C172.965 82.884 173.875 82.9975 174.643 83.4333C175.411 83.869 175.975 84.5915 176.211 85.4422L194.713 152.488C194.946 153.339 194.833 154.249 194.397 155.016C193.961 155.784 193.238 156.347 192.387 156.583Z" fill="#0085FF"/>
<path d="M270.105 165.736L82.8881 217.335L84.8833 224.565L272.1 172.966L270.105 165.736Z" fill="#F1F1F1"/>
<path d="M275.307 184.587L88.0903 236.186L90.0855 243.416L277.303 191.817L275.307 184.587Z" fill="#F1F1F1"/>
<path d="M280.51 203.438L93.2925 255.038L95.2877 262.268L282.505 210.669L280.51 203.438Z" fill="#F1F1F1"/>
<path d="M289.665 236.617L102.448 288.216L104.444 295.446L291.661 243.847L289.665 236.617Z" fill="#F1F1F1"/>
<path d="M294.868 255.468L107.651 307.067L109.646 314.297L296.863 262.698L294.868 255.468Z" fill="#F1F1F1"/>
<path d="M300.07 274.319L112.853 325.918L114.848 333.148L302.065 281.549L300.07 274.319Z" fill="#F1F1F1"/>
<path d="M441.441 392.06H163.812V60.7747H441.441V392.06Z" fill="white"/>
<path d="M441.441 392.06H163.812V60.7747H441.441V392.06ZM168.71 387.165H436.543V65.6694H168.71V387.165Z" fill="#E5E5E5"/>
<path d="M390.894 203.19H232.162V210.69H390.894V203.19Z" fill="#0085FF"/>
<path d="M390.894 222.69H232.162V230.19H390.894V222.69Z" fill="#0085FF"/>
<path d="M390.894 242.19H232.162V249.691H390.894V242.19Z" fill="#0085FF"/>
<path d="M219.257 212.933C221.962 212.933 224.155 210.742 224.155 208.039C224.155 205.335 221.962 203.144 219.257 203.144C216.552 203.144 214.36 205.335 214.36 208.039C214.36 210.742 216.552 212.933 219.257 212.933Z" fill="#0085FF"/>
<path d="M390.894 119.164H232.162V126.664H390.894V119.164Z" fill="#E5E5E5"/>
<path d="M390.894 138.664H232.162V146.164H390.894V138.664Z" fill="#E5E5E5"/>
<path d="M390.894 158.165H232.162V165.665H390.894V158.165Z" fill="#E5E5E5"/>
<path d="M219.257 128.092C221.962 128.092 224.155 125.9 224.155 123.197C224.155 120.494 221.962 118.302 219.257 118.302C216.552 118.302 214.36 120.494 214.36 123.197C214.36 125.9 216.552 128.092 219.257 128.092Z" fill="#E5E5E5"/>
<path d="M390.894 288.032H232.162V295.532H390.894V288.032Z" fill="#E5E5E5"/>
<path d="M390.894 307.532H232.162V315.032H390.894V307.532Z" fill="#E5E5E5"/>
<path d="M390.894 327.032H232.162V334.532H390.894V327.032Z" fill="#E5E5E5"/>
<path d="M219.257 296.96C221.962 296.96 224.155 294.768 224.155 292.065C224.155 289.362 221.962 287.17 219.257 287.17C216.552 287.17 214.36 289.362 214.36 292.065C214.36 294.768 216.552 296.96 219.257 296.96Z" fill="#E5E5E5"/>
<path d="M428.479 420.587C459.819 420.587 485.225 395.197 485.225 363.878C485.225 332.558 459.819 307.168 428.479 307.168C397.14 307.168 371.734 332.558 371.734 363.878C371.734 395.197 397.14 420.587 428.479 420.587Z" fill="#0085FF"/>
<path d="M444.201 360.26V349.409C444.202 347.345 443.797 345.3 443.008 343.393C442.218 341.485 441.06 339.752 439.6 338.292C438.14 336.832 436.407 335.673 434.498 334.883C432.59 334.093 430.545 333.686 428.479 333.686C426.414 333.686 424.368 334.093 422.46 334.883C420.552 335.673 418.818 336.832 417.358 338.292C415.898 339.752 414.74 341.485 413.951 343.393C413.162 345.3 412.756 347.345 412.757 349.409V360.26C410.656 360.354 408.672 361.255 407.218 362.774C405.764 364.294 404.952 366.315 404.951 368.417V394.058H452.008V368.417C452.007 366.315 451.195 364.294 449.741 362.774C448.287 361.255 446.303 360.354 444.201 360.26ZM428.479 339.229C431.18 339.232 433.769 340.306 435.678 342.214C437.588 344.123 438.662 346.71 438.665 349.409V360.241H418.294V349.409C418.297 346.71 419.371 344.123 421.28 342.214C423.19 340.306 425.779 339.232 428.479 339.229Z" fill="white"/>
<path d="M432.709 372.922C432.709 372.194 432.521 371.477 432.162 370.842C431.804 370.208 431.287 369.677 430.662 369.3C430.038 368.924 429.326 368.716 428.597 368.695C427.868 368.675 427.146 368.844 426.502 369.184C425.857 369.525 425.311 370.027 424.918 370.64C424.524 371.254 424.296 371.959 424.256 372.687C424.216 373.414 424.364 374.14 424.687 374.794C425.01 375.447 425.497 376.006 426.1 376.416V385.604H430.858V376.416C431.428 376.029 431.895 375.508 432.218 374.899C432.541 374.29 432.709 373.611 432.709 372.922Z" fill="#0085FF"/>
<path d="M719.169 528.663H402.594C402.373 528.663 402.162 528.575 402.006 528.419C401.85 528.264 401.763 528.053 401.763 527.832C401.763 527.612 401.85 527.401 402.006 527.245C402.162 527.089 402.373 527.002 402.594 527.002H719.169C719.389 527.002 719.601 527.089 719.757 527.245C719.912 527.401 720 527.612 720 527.832C720 528.053 719.912 528.264 719.757 528.419C719.601 528.575 719.389 528.663 719.169 528.663Z" fill="#CBCBCB"/>
</g>
<defs>
<clipPath id="clip0_1_1906">
<rect width="720" height="529" fill="white"/>
</clipPath>
</defs>
</svg>
