<svg width="45" height="46" viewBox="0 0 45 46" fill="none" xmlns="http://www.w3.org/2000/svg">
<rect y="0.5" width="45" height="45" rx="22.5" fill="#60DB41"/>
<path d="M31.7938 13.5575C29.4078 11.2639 26.2319 10 22.8558 10C19.4797 10 16.3037 11.2639 13.9123 13.5575C11.5263 15.8512 10.2116 18.9042 10.2116 22.1496C10.2116 24.6721 11.0015 27.075 12.5002 29.1242L9.5515 35.2615C9.45411 35.4591 9.4974 35.6931 9.65971 35.8492C9.76251 35.948 9.90318 36 10.0439 36C10.1196 36 10.1953 35.9844 10.2711 35.9532L17.045 32.947C18.8304 33.8364 20.8323 34.3045 22.8612 34.3045C26.2373 34.3045 29.4132 33.0406 31.7993 30.7469C34.1853 28.4533 35.5 25.4003 35.5 22.1548C35.5 18.9094 34.1853 15.8564 31.7938 13.5575ZM22.8558 33.2695C20.9188 33.2695 19.0036 32.8014 17.3209 31.912C17.1694 31.834 16.9909 31.8288 16.834 31.8964L11.153 34.4189L13.6202 29.2907C13.7013 29.119 13.6797 28.9162 13.5661 28.7654C12.0836 26.841 11.2991 24.5577 11.2991 22.16C11.2937 16.028 16.4769 11.0402 22.8558 11.0402C29.2293 11.0402 34.4179 16.028 34.4179 22.1548C34.4179 28.2817 29.2293 33.2695 22.8558 33.2695Z" fill="white"/>
<path d="M27.7825 23.8126C27.6997 23.796 27.6168 23.7795 27.5288 23.7684C27.1093 23.7132 26.6329 23.6524 26.1306 23.8844C25.825 24.0224 25.4936 24.2875 25.2036 24.6133C24.6754 24.3593 24.2145 24.0776 23.8261 23.785C23.3756 23.4426 23.0183 23.0781 22.7593 22.6971C22.749 22.6805 22.7334 22.664 22.7231 22.6474C22.1638 21.9958 21.7443 20.9963 21.4699 19.6765C21.8272 19.4446 22.1379 19.1574 22.3295 18.8648C22.6402 18.3899 22.6868 17.8818 22.7231 17.429C22.7283 17.3407 22.7334 17.2468 22.7334 17.1584C22.7334 16.0374 22.3243 15.06 21.646 14.552C21.1229 14.1599 20.4342 14.1599 19.937 14.1599H19.9215C19.5124 14.1599 19.1136 14.2538 18.7408 14.436C18.2903 14.6569 17.9019 14.9993 17.6222 15.43C17.3374 15.8607 17.1613 16.3632 17.1199 16.8878C17.0112 18.1414 17.1458 19.3673 17.5135 20.538C17.9019 21.7694 18.5647 23.5917 19.8127 25.16C20.719 26.4135 21.9567 27.529 23.5879 28.5616C24.5874 29.1911 25.6852 29.5887 26.8504 29.7378C26.9643 29.7544 27.0782 29.7599 27.1922 29.7599C27.5702 29.7599 27.9482 29.6771 28.2952 29.5169C28.7509 29.3126 29.1445 28.9758 29.4397 28.5561C29.6831 28.2137 29.8591 27.8051 29.942 27.3799L29.9472 27.3633C30.0507 26.8442 30.1957 26.1264 29.942 25.4968C29.6157 24.674 28.8079 24.0445 27.7825 23.8126ZM28.9322 27.1259L28.927 27.1424C28.8752 27.4075 28.7665 27.667 28.6111 27.8824C28.4247 28.1475 28.1709 28.3573 27.8861 28.4898C27.6013 28.6224 27.2854 28.6665 26.9747 28.6279C25.9493 28.4953 24.9861 28.1475 24.1161 27.6008C22.5936 26.6399 21.4543 25.6128 20.6258 24.4642C20.6206 24.4587 20.6154 24.4476 20.6102 24.4421C19.471 23.0174 18.8599 21.3221 18.4974 20.1735C18.1711 19.1464 18.0572 18.0751 18.1504 16.9762C18.1763 16.6449 18.2903 16.3246 18.4663 16.054C18.6476 15.7834 18.891 15.5681 19.1758 15.4245C19.414 15.3085 19.6626 15.2478 19.9215 15.2478H19.9422C19.9474 15.2478 19.9526 15.2478 19.9577 15.2478C20.3358 15.2478 20.8018 15.2533 21.0504 15.441C21.532 15.8 21.6977 16.5841 21.6977 17.1474C21.6977 17.2026 21.6977 17.2633 21.6926 17.3186C21.6563 17.7327 21.6304 17.9923 21.4802 18.2132C21.3301 18.4396 21.009 18.6991 20.662 18.8703C20.4445 18.9752 20.3254 19.2237 20.372 19.4722C20.6724 21.1785 21.1954 22.4818 21.9308 23.3542C22.2518 23.8292 22.6868 24.2709 23.2202 24.674C23.7536 25.0772 24.4009 25.4527 25.1466 25.784C25.3641 25.8834 25.6179 25.8061 25.7577 25.6073C25.9856 25.2815 26.2859 25.0054 26.5293 24.8949C26.7624 24.79 27.0109 24.8121 27.3941 24.8618C27.4511 24.8673 27.5029 24.8784 27.5547 24.8894C28.0673 25.0054 28.7509 25.3477 28.9839 25.922C29.1134 26.2313 29.015 26.7283 28.9322 27.1259Z" fill="white"/>
</svg>
